<svg id="Layer_1" data-name="Layer 1" xmlns="http://www.w3.org/2000/svg" viewBox="0 0 620.14 241.62"><g id="zKAPQM"><path d="M24.18,194.18c-7.54-2-10.62-5.67-9.78-11,.94-6,4.08-7.28,17.42-7.32-16.75-21.4-3.94-44,15.17-48.49-6.78-6-13.22-11.24-22.55-11.35-7-.08-11.39-5.23-10-11.23.94-3.92,3.32-5.81,9.24-7.24.38-3.9.37-7.92,1.22-11.76,2.33-10.35,9.34-17.46,17.5-23.51C58.85,50.15,77.75,43.23,97.05,37.41,129,27.77,161.7,22.19,194.74,18.09a1036.9,1036.9,0,0,1,134.58-7.58c49,.32,97.79,3.12,146.28,10.57,32.75,5,65.2,11.3,96.16,23.37a185.31,185.31,0,0,1,31.06,15.68c13.35,8.38,23.38,19.5,21.52,37.29,1,.29,1.71.54,2.46.72,5,1.19,7.65,4.49,7.46,9.13s-3.65,8.83-8.58,8.67c-9.92-.32-16.79,5.17-24.21,11.34,11,3.09,18.7,9.3,21.84,20.1,3.08,10.58.46,20-7.33,28.84,3-.29,5.19-.57,7.39-.7,5.65-.34,10,2.69,10.83,7.46.9,5.18-2.08,9.07-8.07,10.57-.46.11-.89.37-.68.28-1.12,8.62-1.51,17-3.39,24.94-3.89,16.54-23,32-41,32.41-14.47.32-28.95.85-43.43.85q-117,0-233.91-.11-99.18,0-198.37.12c-13.48,0-27,.44-40.41-.93-22.75-2.35-40.11-22.32-40.71-45.26C24.09,202,24.18,198.22,24.18,194.18ZM331,29.9l-.84-1c-8.07,0-16.15.32-24.2-.12-5.32-.28-9,1.64-12.55,5.36-9.82,10.2-19.9,20.14-30,30.07-4.33,4.24-10.12,4.25-13.74.37s-3.09-9.21,1-13.34c2.93-3,5.93-5.84,8.86-8.79,3.9-3.91,7.76-7.86,12.55-12.72-7.44.48-13.48,1.64-19.37,1.08-11.48-1.09-19.39,3.89-26.57,12.21-6.62,7.68-14.23,14.51-21.47,21.64-3.22,3.17-7,3.63-11,1.58s-5.24-5.7-4.25-9.71a14.63,14.63,0,0,1,3.91-6.12c4.93-5,10.1-9.8,15.18-14.67a80.08,80.08,0,0,0-15.68.72c-5,.61-9.87,1.52-14.83,1.94-4.75.41-8.23,2.5-11.47,6-6.35,6.82-13.11,13.27-19.77,19.82-4.15,4.08-9.6,4.3-13.28.67s-3.6-9.25.44-13.38a54.8,54.8,0,0,1,5.84-4.61c-.41-.44-.83-.87-1.24-1.3-21.45,4.57-42.8,9.72-62.79,18.9C66.2,68.88,57.31,74.94,48.59,80.92c-6.66,4.58-7.05,12-6.28,19.39a3.67,3.67,0,0,0,1.51,2.23c4.89,3.46,9.78,6.91,14.79,10.19,9.55,6.26,19.34,6.46,29.07.49,3.54-2.17,6.7-4.94,10.11-7.31a44.87,44.87,0,0,1,52,.24c3,2.12,5.84,4.43,8.87,6.49a26,26,0,0,0,30.35-.11c2.6-1.79,5.07-3.79,7.65-5.61,17.82-12.62,38.75-12.19,56,1.13,2.11,1.62,4.16,3.34,6.4,4.77,9.62,6.12,19.44,6.24,29.18.41,3.41-2,6.43-4.74,9.69-7a45.1,45.1,0,0,1,53.6.79c3.08,2.28,6,4.81,9.33,6.67,9.7,5.42,19.38,5.28,28.7-1.06,2.61-1.77,5.07-3.78,7.59-5.69,11.54-8.74,24.49-10.54,38.35-7.74,9,1.81,15.79,7.48,22.88,12.74,9.91,7.36,22,7.38,32.05.29,2.86-2,5.59-4.2,8.44-6.23a45.06,45.06,0,0,1,51.53-.17c3.68,2.58,7.12,5.56,11,7.79,9.26,5.33,18.69,5.37,27.83-.39,5.34-3.37,10.51-7,15.69-10.61a3.73,3.73,0,0,0,1.36-2.37c.83-7.6-.11-14.72-6.66-19.8a106.35,106.35,0,0,0-12.55-9c-21.8-12.34-45.73-18.66-69.91-24.15-1.63-.37-4.15.61-5.46,1.83-5.38,5-10.35,10.38-15.66,15.42-4.09,3.89-10,3.76-13.4,0s-3.14-8.94.75-12.94c2.88-3,5.94-5.75,9.85-9.51-9.79-1.48-18.25-2.9-26.76-3.91-1.42-.17-3.35,1.17-4.54,2.33-7.63,7.45-15.05,15.1-22.7,22.54-1.72,1.68-3.87,3.42-6.11,4-3.95,1-7.68-.13-9.79-4.06-2-3.7-2-7.54,1.09-10.61,5.62-5.6,11.49-10.95,17.26-16.4l-.78-1.3c-8.37-.81-16.73-1.82-25.12-2.29a9.58,9.58,0,0,0-6.42,2.46c-9.84,9.48-19.38,19.26-29.09,28.87-4.53,4.49-9.87,4.9-13.68,1.24s-3.72-9.22.6-13.73c5.53-5.77,11.3-11.32,16.95-17,1.06-1.07,2.05-2.21,3.08-3.32-.2-.59-.4-1.18-.59-1.77-8.64,0-17.28-.2-25.9.13a11.24,11.24,0,0,0-6.8,2.84c-10.88,10.55-21.49,21.38-32.24,32.07-4.11,4.08-9.55,4.29-13.39.7s-3.8-8.82.23-13.35c1.33-1.49,2.78-2.87,4.23-4.26Q321.88,38.59,331,29.9ZM606.12,201.18l-1.94,1.5c-16.62,13.1-40.78,13.68-55.95,1.4-2.71-2.2-5.74-4-8.6-6-5.14-3.58-10.84-4.68-17-4.35-6.89.36-12.35,3.61-17.4,7.84-9.3,7.78-19.83,12-32.09,11.57-10.94-.36-20.14-4.71-28.8-11.15a46,46,0,0,0-14.79-7.68c-8.11-2.22-15.54.46-22.47,5.43-6,4.32-12.33,8.91-19.24,11.19-16.68,5.5-31.95,1.3-45-10.17-10.41-9.13-26.2-9.89-38.47.84-15.76,13.79-37.69,15.37-54.58,4.52-3.91-2.51-7.45-5.6-11.34-8.15a26.25,26.25,0,0,0-30,.54c-2.86,2-5.58,4.21-8.43,6.22-11.75,8.31-24.79,10.84-38.4,6.51-6.62-2.11-12.91-6-18.6-10.13-7.52-5.44-15.4-9.41-24.53-6.77-5.69,1.65-11.15,5-16,8.6-11.8,8.83-24.76,12.56-39,8.91-7.36-1.89-14.14-6-21.17-9.14.09-.4-.08,0-.1.48C41.75,220.92,55.47,234,74.79,234q101.94,0,203.89,0,126.48,0,253,0c5.32,0,10.64.29,16,.29,8.47,0,17-.78,25.39-.09C591.23,235.64,608.6,220.43,606.12,201.18Zm-104-74c5.82,0,11.26-.19,16.67,0,5.69.25,8.92,4,8.64,9.45-.27,5.29-4,8.46-10.24,8.46-25.16,0-50.31,0-75.47.05-6.1,0-10.87,4.27-11.3,9.75s4,10.19,10.07,11a29.5,29.5,0,0,0,4,.09q41.24,0,82.45,0c22.49,0,45,.05,67.47,0,7.35,0,12-4.26,12-10.5s-4.7-10.29-12.08-10.33c-8,0-16,0-24,0-9.71,0-12.42-2.8-12.25-12-5.39-3.73-10.66-7.17-15.72-10.9C529.05,112.48,513.87,114.11,502.07,127.17ZM96.4,184.08c-1.56,0-2.39,0-3.21,0-7.13-.18-11-3.61-10.85-9.53.16-5.63,3.93-8.54,11.1-8.54l89.45.1c8,0,16,.1,24-.13,6.67-.19,11.24-4.52,11.34-10.25s-4.71-10.34-11.48-10.59c-2.66-.09-5.32,0-8,0q-72.21,0-144.43,0a15.57,15.57,0,0,0-7.5,1.91c-3.74,2.2-5.31,5.92-4.49,10.29.91,4.84,4.57,7.79,10.33,8.64,6.53,1,9.75,4.9,8.62,10.83-1,5.37-5.35,6.86-10.26,7.62C65.51,198.6,81.64,198.6,96.4,184.08ZM324.14,166v0h44.93c10.82,0,21.64.08,32.47-.12,5.82-.1,10.06-4,10.72-9.23.59-4.64-2.73-9.91-7.41-11.11a28.59,28.59,0,0,0-6.94-.42q-71.68,0-143.38,0c-2.83,0-5.67-.12-8.49.06a10.76,10.76,0,0,0-9.71,9.14,10.24,10.24,0,0,0,7,10.83,23.21,23.21,0,0,0,6.88.79Q287.19,166.06,324.14,166Zm-78.79-40c-10.15-12.51-29.75-14.89-44.44,1.27,10.05-1,19,.56,25.3,6.26Zm202.48,1.3c-16.33-16.32-34.14-13.53-45-1.34l19.65,7.63C428.79,127.77,437.48,126.48,447.83,127.35Zm-302-.25c-10-14.67-34.31-14.67-44.39,0Zm155.8-.25h45.29C331.32,112.27,315.67,112.32,301.62,126.85ZM552,184.32c19.66,18,34.36,11.21,45.07,0Zm-255.16-.11H251.43C267,198.78,281.18,198.74,296.87,184.21Zm55.17.14c14.15,14.35,30.38,14.34,44.5,0Zm-201.22-.27c17.09,16.93,35.58,11.82,44.88,0H150.82Zm301.73.25c12.87,14.33,33.3,14.14,43.95,0Z" transform="translate(-14.21 -10.49)"/></g></svg>